<svg width="80" height="83" viewBox="0 0 173 83" fill="none" xmlns="http://www.w3.org/2000/svg">
<rect width="173" height="83" fill="#E5E5E500"/>
<path d="M1 0H173L170.5 7H4L1 0Z" fill="#4E4E4E"/>
<rect x="11" width="152" height="83" rx="9" fill="#4E4E4E"/>
<path d="M0.5 17.5C0.5 15.0147 2.51472 13 5 13H9C11.4853 13 13.5 15.0147 13.5 17.5V17.5C13.5 19.9853 11.4853 22 9 22H5C2.51472 22 0.5 19.9853 0.5 17.5V17.5Z" fill="#4E4E4E"/>
<path d="M160 17.5C160 15.0147 162.015 13 164.5 13H168.5C170.985 13 173 15.0147 173 17.5V17.5C173 19.9853 170.985 22 168.5 22H164.5C162.015 22 160 19.9853 160 17.5V17.5Z" fill="#4E4E4E"/>
</svg>
