<svg width="184" height="103" viewBox="0 0 184 103" fill="none" xmlns="http://www.w3.org/2000/svg">
<rect width="184" height="103" fill="#E5E5E5"/>
<rect x="160.547" y="13.4985" width="22.8245" height="10" rx="3.5" transform="rotate(0.254169 160.547 13.4985)" fill="#4E4E4E" stroke="black"/>
<rect x="0.547093" y="13.4985" width="22.8245" height="10" rx="3.5" transform="rotate(0.254169 0.547093 13.4985)" fill="#4E4E4E" stroke="black"/>
<g filter="url(#filter0_d)">
<path d="M12.1781 7.15438C12.1947 3.40924 15.3422 0.387102 19.2081 0.404252L165.207 1.05192C169.073 1.06907 172.193 4.11901 172.177 7.86415L171.824 87.3009C171.808 91.046 168.66 94.0682 164.794 94.051L18.7956 93.4033C14.9296 93.3862 11.8091 90.3362 11.8257 86.5911L12.1781 7.15438Z" fill="#4E4E4E"/>
<path d="M19.2059 0.904247L165.204 1.55191C168.809 1.56791 171.692 4.40778 171.677 7.86194L171.324 87.2987C171.309 90.7528 168.401 93.567 164.796 93.551L18.7978 92.9033C15.1929 92.8874 12.3104 90.0475 12.3257 86.5933L12.6781 7.1566C12.6934 3.70244 15.601 0.888255 19.2059 0.904247Z" stroke="black"/>
</g>
<rect x="6" width="172" height="7" fill="#4E4E4E"/>
<defs>
<filter id="filter0_d" x="7.79562" y="0.373199" width="168.411" height="101.709" filterUnits="userSpaceOnUse" color-interpolation-filters="sRGB">
<feFlood flood-opacity="0" result="BackgroundImageFix"/>
<feColorMatrix in="SourceAlpha" type="matrix" values="0 0 0 0 0 0 0 0 0 0 0 0 0 0 0 0 0 0 127 0" result="hardAlpha"/>
<feOffset dy="4"/>
<feGaussianBlur stdDeviation="2"/>
<feComposite in2="hardAlpha" operator="out"/>
<feColorMatrix type="matrix" values="0 0 0 0 0 0 0 0 0 0 0 0 0 0 0 0 0 0 0.25 0"/>
<feBlend mode="normal" in2="BackgroundImageFix" result="effect1_dropShadow"/>
<feBlend mode="normal" in="SourceGraphic" in2="effect1_dropShadow" result="shape"/>
</filter>
</defs>
</svg>
